# xmcd CD database file
#
# Track frame offsets:
#	150
#	12016
#	40541
#	51934
#	70256
#	83095
#	97251
#	117667
#	128864
#	139862
#	151690
#	165923
#	181304
#	195191
#	210537
#	223690
#	236079
#	250215
#
# Disc length: 3533 seconds
#
# Revision: 0
# Processed by: cddbd v1.5.1PL0 Copyright (c) Steve Scherf et al.
# Submitted via: CDex 1.51
#
DISCID=f10dcb12
DTITLE=Ella Fitzgerald - That Old Black Magic
DYEAR=2003
DGENRE=Jazz
TTITLE0=A tisket a tasket
TTITLE1=April in Paris
TTITLE2=It's only a paper moon
TTITLE3=Hallelujah!
TTITLE4=Lullaby of birdland
TTITLE5=My heart belongs to daddy
TTITLE6=A foggy day (with Louis Armstrong)
TTITLE7=When I get low I get high
TTITLE8=That old black magic
TTITLE9=Sing me a swing song
TTITLE10=Taking a chance on love
TTITLE11=I got a guy
TTITLE12=My man (Mon homme)
TTITLE13=I'm confessin' (that I love you)
TTITLE14=I got id bad and that aint good
TTITLE15=I'm getting mighty lonesome for you
TTITLE16=Darktown strutters ball
TTITLE17=Love and kissess
EXTD=YEAR: 2003
EXTT0=
EXTT1=
EXTT2=
EXTT3=
EXTT4=
EXTT5=
EXTT6=
EXTT7=
EXTT8=
EXTT9=
EXTT10=
EXTT11=
EXTT12=
EXTT13=
EXTT14=
EXTT15=
EXTT16=
EXTT17=
PLAYORDER=
